<svg xmlns="http://www.w3.org/2000/svg" width="1200" height="800" viewBox="0 0 1200 800" role="img" aria-label="Patrón técnico de ingeniería">
<defs><linearGradient id="g" x1="0" y1="0" x2="1" y2="1"><stop stop-color="#062b4f"/><stop offset="1" stop-color="#0b3f70"/></linearGradient><pattern id="grid" width="40" height="40" patternUnits="userSpaceOnUse"><path d="M40 0H0V40" fill="none" stroke="#ffffff" stroke-opacity=".08" stroke-width="1"/></pattern></defs>
<rect width="1200" height="800" fill="url(#g)"/><rect width="1200" height="800" fill="url(#grid)"/>
<g opacity=".95" fill="none" stroke="#caa45d" stroke-width="3"><path d="M125 595H1030M180 595V225h230v370M410 330h275v265M685 270h245v325"/><path d="M220 275h150M220 335h150M220 395h150M220 455h150M450 382h195M450 440h195M450 498h195M725 326h160M725 386h160M725 446h160M725 506h160"/></g>
<g fill="#ffffff" opacity=".92"><circle cx="180" cy="225" r="8"/><circle cx="410" cy="330" r="8"/><circle cx="685" cy="270" r="8"/><circle cx="930" cy="595" r="8"/></g>
<g fill="#fff" opacity=".9" font-family="Arial, sans-serif"><text x="125" y="145" font-size="44" font-weight="700">Coordinación técnica y BIM</text><text x="125" y="195" font-size="24" fill="#d7e7f5">Instalaciones, documentación y análisis previo a ejecución</text></g>
</svg>